<svg width="60" height="60" viewBox="0 0 60 60" fill="none" xmlns="http://www.w3.org/2000/svg">
<g clip-path="url(#clip0_10_13544)">
<rect width="60" height="60" rx="30" fill="#F9FAFF"/>
<g filter="url(#filter0_i_10_13544)">
<circle cx="30.0001" cy="30" r="30.2609" fill="#18284F"/>
</g>
<path d="M12.522 60C12.522 50.7793 19.9969 43.3044 29.2176 43.3044H30.7829C40.0036 43.3044 47.4785 50.7793 47.4785 60H12.522Z" fill="url(#paint0_linear_10_13544)"/>
<path d="M38.087 43.3044C38.087 44.3664 37.8778 45.418 37.4714 46.3991C37.065 47.3803 36.4693 48.2718 35.7184 49.0227C34.9674 49.7736 34.0759 50.3693 33.0948 50.7757C32.1136 51.1821 31.062 51.3913 30 51.3913C28.938 51.3913 27.8865 51.1821 26.9053 50.7757C25.9241 50.3693 25.0326 49.7736 24.2817 49.0227C23.5308 48.2718 22.9351 47.3803 22.5287 46.3991C22.1223 45.418 21.9131 44.3664 21.9131 43.3044L30 43.3044H38.087Z" fill="#00183D"/>
<rect x="24" y="28.4348" width="12" height="20.8696" rx="6" fill="url(#paint1_linear_10_13544)"/>
<rect x="20.6089" y="15.1304" width="18.7826" height="28.1739" rx="9.3913" fill="url(#paint2_linear_10_13544)"/>
<path d="M35.4785 33.913C35.4785 34.6325 35.3368 35.3448 35.0615 36.0095C34.7862 36.6741 34.3827 37.2781 33.8739 37.7868C33.3652 38.2955 32.7613 38.699 32.0967 38.9743C31.432 39.2496 30.7196 39.3913 30.0002 39.3913C29.2808 39.3913 28.5684 39.2496 27.9038 38.9743C27.2391 38.699 26.6352 38.2955 26.1265 37.7868C25.6178 37.2781 25.2143 36.6741 24.939 36.0095C24.6637 35.3448 24.522 34.6325 24.522 33.913L30.0002 33.913H35.4785Z" fill="url(#paint3_linear_10_13544)"/>
<path fill-rule="evenodd" clip-rule="evenodd" d="M33.0677 38.4519C32.7631 38.6578 32.4378 38.833 32.0966 38.9743C31.4319 39.2496 30.7195 39.3913 30.0001 39.3913C29.2807 39.3913 28.5683 39.2496 27.9037 38.9743C27.5624 38.833 27.2372 38.6578 26.9326 38.452C27.5833 37.4474 28.7141 36.7826 30.0002 36.7826C31.2862 36.7826 32.417 37.4473 33.0677 38.4519Z" fill="#EF5350"/>
<path d="M26.0874 33.9131H33.9135C33.9135 34.7775 33.2127 35.4783 32.3483 35.4783H27.6526C26.7882 35.4783 26.0874 34.7775 26.0874 33.9131Z" fill="white"/>
<ellipse cx="34.5654" cy="29.3478" rx="1.95652" ry="1.95652" fill="black"/>
<ellipse cx="35.348" cy="28.8261" rx="0.652173" ry="0.652174" fill="white"/>
<ellipse cx="34.9567" cy="30" rx="0.260869" ry="0.26087" fill="white"/>
<circle cx="25.4345" cy="29.3478" r="1.95652" fill="black"/>
<ellipse cx="26.2171" cy="28.8261" rx="0.652174" ry="0.652174" fill="white"/>
<ellipse cx="25.8258" cy="30" rx="0.26087" ry="0.26087" fill="white"/>
<path d="M36.9316 21.2878L39.4786 33.4218L39.8927 32.9524L39.5614 31.7238V24.0417L39.3681 18.4164L37.1387 18.4026L36.9316 21.2878Z" fill="black"/>
<path d="M36.1488 22.853L22.2616 25.1859L20.3359 35.1871L19.832 34.138L20.191 32.8542V25.9865L19.9701 21.8038L23.0623 16.2545L28.232 14.3357L32.7805 14.4047L37.7984 17.9869L38.0055 19.3259L36.1488 22.853Z" fill="black"/>
<path d="M30.5372 25.8761C33.4913 25.7036 36.5421 24.1436 36.5421 21.086C36.5421 19.1879 35.0029 17.6487 33.1048 17.6487C31.9453 17.6487 30.9997 18.2285 30.4544 18.8566C27.9765 21.6727 25.1328 23.6122 20.6533 24.8132C23.9042 25.6828 28.1215 26.0142 30.5372 25.8761Z" fill="#1A1A1A"/>
<path fill-rule="evenodd" clip-rule="evenodd" d="M36.9233 14.9269C40.1483 15.349 40.9564 16.6659 40.9564 19.5652V35.2174C40.9564 38.0546 42.2638 40.6852 43.3796 42.9306C43.4422 43.0564 43.5041 43.181 43.5651 43.3043L35.9999 43.3043V41.2174C35.9999 41.191 35.9997 41.1646 35.9994 41.1383C38.0717 39.4157 39.391 36.8184 39.391 33.913V24.5217C39.391 19.3351 35.1864 15.1304 29.9997 15.1304C24.813 15.1304 20.6084 19.3351 20.6084 24.5217V33.913C20.6084 36.8186 21.9279 39.416 24.0004 41.1387C24.0001 41.1649 23.9999 41.1911 23.9999 41.2174V43.3043L16.1738 43.3043C18.2552 40.661 19.0434 37.843 19.0434 34.8261V21.1747C19.0434 15.3138 26.2964 10.699 33.2792 11.5917C35.8489 11.9236 36.4323 13.5545 36.9223 14.924L36.9233 14.9269Z" fill="black"/>
<path d="M19.5654 27.6522C19.5654 27.0759 20.0326 26.6087 20.6089 26.6087V32.087C20.0326 32.087 19.5654 31.6198 19.5654 31.0435V27.6522Z" fill="#FFAB91"/>
<path d="M40.4346 27.6522C40.4346 27.0759 39.9674 26.6087 39.3911 26.6087V32.087C39.9674 32.087 40.4346 31.6198 40.4346 31.0435V27.6522Z" fill="#FFAB91"/>
</g>
<defs>
<filter id="filter0_i_10_13544" x="-0.260742" y="-0.260864" width="60.522" height="70.5217" filterUnits="userSpaceOnUse" color-interpolation-filters="sRGB">
<feFlood flood-opacity="0" result="BackgroundImageFix"/>
<feBlend mode="normal" in="SourceGraphic" in2="BackgroundImageFix" result="shape"/>
<feColorMatrix in="SourceAlpha" type="matrix" values="0 0 0 0 0 0 0 0 0 0 0 0 0 0 0 0 0 0 127 0" result="hardAlpha"/>
<feOffset dy="10"/>
<feGaussianBlur stdDeviation="6"/>
<feComposite in2="hardAlpha" operator="arithmetic" k2="-1" k3="1"/>
<feColorMatrix type="matrix" values="0 0 0 0 0.380392 0 0 0 0 0.74902 0 0 0 0 0.92549 0 0 0 0.95 0"/>
<feBlend mode="normal" in2="shape" result="effect1_innerShadow_10_13544"/>
</filter>
<linearGradient id="paint0_linear_10_13544" x1="29.9984" y1="43.3036" x2="29.9984" y2="47.7189" gradientUnits="userSpaceOnUse">
<stop stop-color="#0044AA"/>
<stop offset="1" stop-color="#002255"/>
</linearGradient>
<linearGradient id="paint1_linear_10_13544" x1="30.0018" y1="28.435" x2="30.0018" y2="49.42" gradientUnits="userSpaceOnUse">
<stop stop-color="#E64A19"/>
<stop offset="1" stop-color="#FFCCBC"/>
</linearGradient>
<linearGradient id="paint2_linear_10_13544" x1="29.9982" y1="33.9455" x2="29.9982" y2="29.6352" gradientUnits="userSpaceOnUse">
<stop stop-color="#FFCCBC"/>
<stop offset="1" stop-color="#FF8A65"/>
</linearGradient>
<linearGradient id="paint3_linear_10_13544" x1="30.2611" y1="33.913" x2="30.2611" y2="35.3478" gradientUnits="userSpaceOnUse">
<stop stop-color="#FF7043"/>
<stop offset="1" stop-color="#FFAB91"/>
</linearGradient>
<clipPath id="clip0_10_13544">
<rect width="60" height="60" rx="30" fill="white"/>
</clipPath>
</defs>
</svg>
