<svg width="60" height="60" viewBox="0 0 60 60" fill="none" xmlns="http://www.w3.org/2000/svg">
<g clip-path="url(#clip0_10_13480)">
<rect width="60" height="60" rx="30" fill="#F9FAFF"/>
<g filter="url(#filter0_i_10_13480)">
<circle cx="30.0001" cy="30" r="30.2609" fill="#18284F"/>
</g>
<path d="M12.522 60C12.522 50.7793 19.9969 43.3044 29.2176 43.3044H30.7829C40.0036 43.3044 47.4785 50.7793 47.4785 60H12.522Z" fill="url(#paint0_linear_10_13480)"/>
<path d="M38.087 43.3044C38.087 44.3664 37.8778 45.418 37.4714 46.3991C37.065 47.3803 36.4693 48.2718 35.7184 49.0227C34.9674 49.7736 34.0759 50.3693 33.0948 50.7757C32.1136 51.1821 31.062 51.3913 30 51.3913C28.938 51.3913 27.8865 51.1821 26.9053 50.7757C25.9241 50.3693 25.0326 49.7736 24.2817 49.0227C23.5308 48.2718 22.9351 47.3803 22.5287 46.3991C22.1223 45.418 21.9131 44.3664 21.9131 43.3044L30 43.3044H38.087Z" fill="#390047"/>
<rect x="24" y="28.4348" width="12" height="20.8696" rx="6" fill="url(#paint1_linear_10_13480)"/>
<rect x="20.6089" y="15.1304" width="18.7826" height="28.1739" rx="9.3913" fill="url(#paint2_linear_10_13480)"/>
<path d="M35.4785 33.913C35.4785 34.6325 35.3368 35.3448 35.0615 36.0095C34.7862 36.6741 34.3827 37.2781 33.8739 37.7868C33.3652 38.2955 32.7613 38.699 32.0967 38.9743C31.432 39.2496 30.7196 39.3913 30.0002 39.3913C29.2808 39.3913 28.5684 39.2496 27.9038 38.9743C27.2391 38.699 26.6352 38.2955 26.1265 37.7868C25.6178 37.2781 25.2143 36.6741 24.939 36.0095C24.6637 35.3448 24.522 34.6325 24.522 33.913L30.0002 33.913H35.4785Z" fill="url(#paint3_linear_10_13480)"/>
<path fill-rule="evenodd" clip-rule="evenodd" d="M33.0677 38.4519C32.7631 38.6578 32.4378 38.833 32.0966 38.9743C31.4319 39.2496 30.7195 39.3913 30.0001 39.3913C29.2807 39.3913 28.5683 39.2496 27.9037 38.9743C27.5624 38.833 27.2372 38.6578 26.9326 38.452C27.5833 37.4474 28.7141 36.7826 30.0002 36.7826C31.2862 36.7826 32.417 37.4473 33.0677 38.4519Z" fill="#EF5350"/>
<path d="M26.0874 33.9131H33.9135C33.9135 34.7775 33.2127 35.4783 32.3483 35.4783H27.6526C26.7882 35.4783 26.0874 34.7775 26.0874 33.9131Z" fill="white"/>
<ellipse cx="34.5654" cy="29.3478" rx="1.95652" ry="1.95652" fill="black"/>
<ellipse cx="35.348" cy="28.8261" rx="0.652173" ry="0.652174" fill="white"/>
<ellipse cx="34.9567" cy="30" rx="0.260869" ry="0.26087" fill="white"/>
<circle cx="25.4345" cy="29.3478" r="1.95652" fill="black"/>
<ellipse cx="26.2171" cy="28.8261" rx="0.652174" ry="0.652174" fill="white"/>
<ellipse cx="25.8258" cy="30" rx="0.26087" ry="0.26087" fill="white"/>
<path fill-rule="evenodd" clip-rule="evenodd" d="M20.6089 30.6062L18.8687 31.8383V43.6204C18.8687 48.1068 20.6563 50.9987 23.7899 52.2963V43.5582L24.8252 42.2054V41.7512C22.2846 40.0705 20.6089 37.1875 20.6089 33.9131V30.6062ZM34.4883 42.1646V42.2054L35.5236 43.5582V52.2963C38.6572 50.9987 40.4449 48.1068 40.4449 43.6204V31.8383L39.3915 31.0925V33.9131C39.3915 37.4742 37.4094 40.5724 34.4883 42.1646Z" fill="#961717"/>
<path d="M32.6455 22.403C34.0881 23.0035 35.5168 24.0251 36.3244 25.4262C37.5392 27.5245 38.2984 34.1022 38.609 36.9252L39.7133 28.5322L36.9732 21.1882L32.0864 20.077L32.6455 22.403Z" fill="#731212"/>
<path d="M32.8319 21.2849C31.41 32.0868 21.6572 35.1238 15.6523 35.1238C19.131 30.0162 15.1623 20.9328 17.9715 16.0668C24.5285 4.71269 37.4356 10.0481 37.4356 15.8942C38.5952 16.0046 40.0722 16.5844 40.7349 17.4817C43.8201 22.8171 40.9902 31.2654 38.609 36.9252C38.6297 32.9013 38.4226 29.3328 37.4839 25.44C37.1043 23.8594 34.3918 21.706 32.8319 21.2849Z" fill="#B71C1C"/>
<path d="M40.4346 27.6522C40.4346 27.0759 39.9674 26.6087 39.3911 26.6087V32.087C39.9674 32.087 40.4346 31.6198 40.4346 31.0435V27.6522Z" fill="#FFAB91"/>
</g>
<defs>
<filter id="filter0_i_10_13480" x="-0.260742" y="-0.260864" width="60.522" height="70.5217" filterUnits="userSpaceOnUse" color-interpolation-filters="sRGB">
<feFlood flood-opacity="0" result="BackgroundImageFix"/>
<feBlend mode="normal" in="SourceGraphic" in2="BackgroundImageFix" result="shape"/>
<feColorMatrix in="SourceAlpha" type="matrix" values="0 0 0 0 0 0 0 0 0 0 0 0 0 0 0 0 0 0 127 0" result="hardAlpha"/>
<feOffset dy="10"/>
<feGaussianBlur stdDeviation="6"/>
<feComposite in2="hardAlpha" operator="arithmetic" k2="-1" k3="1"/>
<feColorMatrix type="matrix" values="0 0 0 0 0.380392 0 0 0 0 0.74902 0 0 0 0 0.92549 0 0 0 0.95 0"/>
<feBlend mode="normal" in2="shape" result="effect1_innerShadow_10_13480"/>
</filter>
<linearGradient id="paint0_linear_10_13480" x1="30.0107" y1="43.2952" x2="30.0076" y2="47.7166" gradientUnits="userSpaceOnUse">
<stop stop-color="#8800AA"/>
<stop offset="1" stop-color="#440055"/>
</linearGradient>
<linearGradient id="paint1_linear_10_13480" x1="30.0018" y1="28.435" x2="30.0018" y2="49.42" gradientUnits="userSpaceOnUse">
<stop stop-color="#E64A19"/>
<stop offset="1" stop-color="#FFCCBC"/>
</linearGradient>
<linearGradient id="paint2_linear_10_13480" x1="29.9982" y1="33.9455" x2="29.9982" y2="29.6352" gradientUnits="userSpaceOnUse">
<stop stop-color="#FFCCBC"/>
<stop offset="1" stop-color="#FF8A65"/>
</linearGradient>
<linearGradient id="paint3_linear_10_13480" x1="30.2611" y1="33.913" x2="30.2611" y2="35.3478" gradientUnits="userSpaceOnUse">
<stop stop-color="#FF7043"/>
<stop offset="1" stop-color="#FFAB91"/>
</linearGradient>
<clipPath id="clip0_10_13480">
<rect width="60" height="60" rx="30" fill="white"/>
</clipPath>
</defs>
</svg>
