<svg width="60" height="60" viewBox="0 0 60 60" fill="none" xmlns="http://www.w3.org/2000/svg">
<g clip-path="url(#clip0_10_13166)">
<rect width="60" height="60" rx="30" fill="#F9FAFF"/>
<g filter="url(#filter0_i_10_13166)">
<circle cx="30.0001" cy="30" r="30.2609" fill="#18284F"/>
</g>
<path d="M12.522 60C12.522 50.7793 19.9969 43.3044 29.2176 43.3044H30.7829C40.0036 43.3044 47.4785 50.7793 47.4785 60H12.522Z" fill="url(#paint0_linear_10_13166)"/>
<path d="M38.087 43.3044C38.087 44.3664 37.8778 45.418 37.4714 46.3991C37.065 47.3803 36.4693 48.2718 35.7184 49.0227C34.9674 49.7736 34.0759 50.3693 33.0948 50.7757C32.1136 51.1821 31.062 51.3913 30 51.3913C28.938 51.3913 27.8865 51.1821 26.9053 50.7757C25.9241 50.3693 25.0326 49.7736 24.2817 49.0227C23.5308 48.2718 22.9351 47.3803 22.5287 46.3991C22.1223 45.418 21.9131 44.3664 21.9131 43.3044L30 43.3044H38.087Z" fill="#F58700"/>
<rect x="24" y="28.4348" width="12" height="20.8696" rx="6" fill="url(#paint1_linear_10_13166)"/>
<rect x="20.6089" y="15.1304" width="18.7826" height="28.1739" rx="9.3913" fill="url(#paint2_linear_10_13166)"/>
<path d="M35.4785 33.913C35.4785 34.6325 35.3368 35.3448 35.0615 36.0095C34.7862 36.6741 34.3827 37.2781 33.8739 37.7868C33.3652 38.2955 32.7613 38.699 32.0967 38.9743C31.432 39.2496 30.7196 39.3913 30.0002 39.3913C29.2808 39.3913 28.5684 39.2496 27.9038 38.9743C27.2391 38.699 26.6352 38.2955 26.1265 37.7868C25.6178 37.2781 25.2143 36.6741 24.939 36.0095C24.6637 35.3448 24.522 34.6325 24.522 33.913L30.0002 33.913H35.4785Z" fill="url(#paint3_linear_10_13166)"/>
<path fill-rule="evenodd" clip-rule="evenodd" d="M33.0677 38.4519C32.7631 38.6578 32.4378 38.833 32.0966 38.9743C31.4319 39.2496 30.7195 39.3913 30.0001 39.3913C29.2807 39.3913 28.5683 39.2496 27.9037 38.9743C27.5624 38.833 27.2372 38.6578 26.9326 38.452C27.5833 37.4474 28.7141 36.7826 30.0002 36.7826C31.2862 36.7826 32.417 37.4473 33.0677 38.4519Z" fill="#EF5350"/>
<path d="M26.0874 33.9131H33.9135C33.9135 34.7775 33.2127 35.4783 32.3483 35.4783H27.6526C26.7882 35.4783 26.0874 34.7775 26.0874 33.9131Z" fill="white"/>
<ellipse cx="34.5654" cy="29.3478" rx="1.95652" ry="1.95652" fill="black"/>
<ellipse cx="35.348" cy="28.8261" rx="0.652173" ry="0.652174" fill="white"/>
<ellipse cx="34.9567" cy="30" rx="0.260869" ry="0.26087" fill="white"/>
<path d="M31.5652 29.3478C31.5652 27.691 32.9084 26.3478 34.5652 26.3478C36.2221 26.3478 37.5652 27.691 37.5652 29.3478C37.5652 31.0047 36.2221 32.3478 34.5652 32.3478C32.9084 32.3478 31.5652 31.0047 31.5652 29.3478Z" fill="white" fill-opacity="0.5"/>
<path d="M31.5652 29.3478V29.3478C31.5652 31.0047 32.9084 32.3478 34.5652 32.3478V32.3478C36.2221 32.3478 37.5652 31.0047 37.5652 29.3478V29.3478C37.5652 27.691 36.2221 26.3478 34.5652 26.3478V26.3478C32.9084 26.3478 31.5652 27.691 31.5652 29.3478V29.3478ZM31.5652 29.3478H30" stroke="#6D4C41" stroke-width="3"/>
<circle cx="25.4345" cy="29.3478" r="1.95652" fill="black"/>
<ellipse cx="26.2171" cy="28.8261" rx="0.652174" ry="0.652174" fill="white"/>
<ellipse cx="25.8258" cy="30" rx="0.26087" ry="0.26087" fill="white"/>
<path d="M22.4346 29.3478C22.4346 27.691 23.7777 26.3478 25.4346 26.3478C27.0914 26.3478 28.4346 27.691 28.4346 29.3478C28.4346 31.0047 27.0914 32.3478 25.4346 32.3478C23.7777 32.3478 22.4346 31.0047 22.4346 29.3478Z" fill="white" fill-opacity="0.5"/>
<path d="M28.4346 29.3478V29.3478C28.4346 27.691 27.0914 26.3478 25.4346 26.3478V26.3478C23.7777 26.3478 22.4346 27.691 22.4346 29.3478V29.3478C22.4346 31.0047 23.7777 32.3478 25.4346 32.3478V32.3478C27.0914 32.3478 28.4346 31.0047 28.4346 29.3478V29.3478ZM28.4346 29.3478H29.9998" stroke="#6D4C41" stroke-width="3"/>
<path d="M39.3913 20.3478L37.0435 20.5699V24.7401C37.9187 24.7401 38.6202 25.4409 38.6202 26.3151V29.1531V29.16V33.129C38.6202 33.5592 38.9676 33.9061 39.3913 33.9131V20.3478Z" fill="#1A1A1A"/>
<path d="M28.603 22.4956C33.1999 21.06 37.1065 22.0125 40.599 24.3868L40.1228 22.2126L37.5068 19.7693L33.5588 19.4656L29.0931 20.4181L28.603 22.4956Z" fill="#333333"/>
<path d="M20.6089 20.3478L22.9567 20.5699V24.7401C22.0815 24.7401 21.3799 25.4409 21.3799 26.3151V29.1531V29.16V33.129C21.3799 33.5592 21.0326 33.9061 20.6089 33.9131V20.3478Z" fill="#1A1A1A"/>
<path d="M28.4718 11.4798C23.8198 11.4039 19.0435 14.1992 19.0435 18.9963C19.0435 21.978 21.4592 24.3868 24.4341 24.3868C26.2562 24.3868 27.685 23.4274 28.5961 22.4956C29.8315 21.2394 31.0325 20.5147 32.2887 20.1903C32.8478 20.0454 33.4276 19.9694 34.0005 19.9694C37.1133 19.9694 39.5015 21.7778 40.5852 24.3868C40.5852 16.6633 35.4016 12.1286 29.3898 11.5281C29.093 11.5005 28.7824 11.4798 28.4718 11.4798Z" fill="black"/>
<path d="M19.5654 27.6522C19.5654 27.0759 20.0326 26.6087 20.6089 26.6087V32.087C20.0326 32.087 19.5654 31.6198 19.5654 31.0435V27.6522Z" fill="#FFAB91"/>
<path d="M40.4346 27.6522C40.4346 27.0759 39.9674 26.6087 39.3911 26.6087V32.087C39.9674 32.087 40.4346 31.6198 40.4346 31.0435V27.6522Z" fill="#FFAB91"/>
</g>
<defs>
<filter id="filter0_i_10_13166" x="-0.260742" y="-0.260864" width="60.522" height="70.5217" filterUnits="userSpaceOnUse" color-interpolation-filters="sRGB">
<feFlood flood-opacity="0" result="BackgroundImageFix"/>
<feBlend mode="normal" in="SourceGraphic" in2="BackgroundImageFix" result="shape"/>
<feColorMatrix in="SourceAlpha" type="matrix" values="0 0 0 0 0 0 0 0 0 0 0 0 0 0 0 0 0 0 127 0" result="hardAlpha"/>
<feOffset dy="10"/>
<feGaussianBlur stdDeviation="6"/>
<feComposite in2="hardAlpha" operator="arithmetic" k2="-1" k3="1"/>
<feColorMatrix type="matrix" values="0 0 0 0 0.380392 0 0 0 0 0.74902 0 0 0 0 0.92549 0 0 0 0.95 0"/>
<feBlend mode="normal" in2="shape" result="effect1_innerShadow_10_13166"/>
</filter>
<linearGradient id="paint0_linear_10_13166" x1="29.9983" y1="43.305" x2="29.9983" y2="47.7202" gradientUnits="userSpaceOnUse">
<stop stop-color="#FFD400"/>
<stop offset="1" stop-color="#FF8D00"/>
</linearGradient>
<linearGradient id="paint1_linear_10_13166" x1="30.0018" y1="28.435" x2="30.0018" y2="49.42" gradientUnits="userSpaceOnUse">
<stop stop-color="#E64A19"/>
<stop offset="1" stop-color="#FFCCBC"/>
</linearGradient>
<linearGradient id="paint2_linear_10_13166" x1="29.9982" y1="33.9455" x2="29.9982" y2="29.6352" gradientUnits="userSpaceOnUse">
<stop stop-color="#FFCCBC"/>
<stop offset="1" stop-color="#FF8A65"/>
</linearGradient>
<linearGradient id="paint3_linear_10_13166" x1="30.2611" y1="33.913" x2="30.2611" y2="35.3478" gradientUnits="userSpaceOnUse">
<stop stop-color="#FF7043"/>
<stop offset="1" stop-color="#FFAB91"/>
</linearGradient>
<clipPath id="clip0_10_13166">
<rect width="60" height="60" rx="30" fill="white"/>
</clipPath>
</defs>
</svg>
