<svg width="60" height="60" viewBox="0 0 60 60" fill="none" xmlns="http://www.w3.org/2000/svg">
<g clip-path="url(#clip0_10_13258)">
<rect width="60" height="60" rx="30" fill="#F9FAFF"/>
<g filter="url(#filter0_i_10_13258)">
<circle cx="30.0001" cy="30" r="30.2609" fill="#18284F"/>
</g>
<path d="M12.522 60C12.522 50.7793 19.9969 43.3044 29.2176 43.3044H30.7829C40.0036 43.3044 47.4785 50.7793 47.4785 60H12.522Z" fill="url(#paint0_linear_10_13258)"/>
<path d="M38.087 43.3044C38.087 44.3664 37.8778 45.418 37.4714 46.3991C37.065 47.3803 36.4693 48.2718 35.7184 49.0227C34.9674 49.7736 34.0759 50.3693 33.0948 50.7757C32.1136 51.1821 31.062 51.3913 30 51.3913C28.938 51.3913 27.8865 51.1821 26.9053 50.7757C25.9241 50.3693 25.0326 49.7736 24.2817 49.0227C23.5308 48.2718 22.9351 47.3803 22.5287 46.3991C22.1223 45.418 21.9131 44.3664 21.9131 43.3044L30 43.3044H38.087Z" fill="#47001D"/>
<rect x="24" y="28.4348" width="12" height="20.8696" rx="6" fill="url(#paint1_linear_10_13258)"/>
<rect x="20.6089" y="15.1304" width="18.7826" height="28.1739" rx="9.3913" fill="url(#paint2_linear_10_13258)"/>
<path d="M35.4785 33.913C35.4785 34.6325 35.3368 35.3448 35.0615 36.0095C34.7862 36.6741 34.3827 37.2781 33.8739 37.7868C33.3652 38.2955 32.7613 38.699 32.0967 38.9743C31.432 39.2496 30.7196 39.3913 30.0002 39.3913C29.2808 39.3913 28.5684 39.2496 27.9038 38.9743C27.2391 38.699 26.6352 38.2955 26.1265 37.7868C25.6178 37.2781 25.2143 36.6741 24.939 36.0095C24.6637 35.3448 24.522 34.6325 24.522 33.913L30.0002 33.913H35.4785Z" fill="url(#paint3_linear_10_13258)"/>
<path fill-rule="evenodd" clip-rule="evenodd" d="M33.0677 38.4519C32.7631 38.6578 32.4378 38.833 32.0966 38.9743C31.4319 39.2496 30.7195 39.3913 30.0001 39.3913C29.2807 39.3913 28.5683 39.2496 27.9037 38.9743C27.5624 38.833 27.2372 38.6578 26.9326 38.452C27.5833 37.4474 28.7141 36.7826 30.0002 36.7826C31.2862 36.7826 32.417 37.4473 33.0677 38.4519Z" fill="#EF5350"/>
<path d="M26.0874 33.9131H33.9135C33.9135 34.7775 33.2127 35.4783 32.3483 35.4783H27.6526C26.7882 35.4783 26.0874 34.7775 26.0874 33.9131Z" fill="white"/>
<ellipse cx="34.5654" cy="29.3478" rx="1.95652" ry="1.95652" fill="black"/>
<ellipse cx="35.348" cy="28.8261" rx="0.652173" ry="0.652174" fill="white"/>
<ellipse cx="34.9567" cy="30" rx="0.260869" ry="0.26087" fill="white"/>
<circle cx="25.4345" cy="29.3478" r="1.95652" fill="black"/>
<ellipse cx="26.2171" cy="28.8261" rx="0.652174" ry="0.652174" fill="white"/>
<ellipse cx="25.8258" cy="30" rx="0.26087" ry="0.26087" fill="white"/>
<path fill-rule="evenodd" clip-rule="evenodd" d="M27.1449 4.45548C27.2622 4.44167 27.3796 4.43478 27.4969 4.43478H27.5866C27.6695 4.43478 27.7523 4.44163 27.8282 4.44853C27.8558 4.45199 27.8852 4.45545 27.9145 4.45891C27.9438 4.46238 27.9732 4.46584 28.0008 4.46929C28.0328 4.47571 28.0649 4.48063 28.0962 4.48544C28.1324 4.491 28.1677 4.49641 28.2009 4.50381C28.2277 4.50763 28.2523 4.51356 28.276 4.51926C28.2951 4.52385 28.3136 4.5283 28.3321 4.53137C28.4011 4.54518 28.477 4.56587 28.546 4.58658C28.5827 4.60227 28.6193 4.61401 28.6529 4.62479C28.6636 4.62823 28.6741 4.63157 28.6841 4.63491C28.6963 4.63899 28.7089 4.64307 28.7215 4.64721C28.7732 4.66405 28.8275 4.68176 28.8773 4.70393C28.9015 4.71428 28.9239 4.72464 28.9464 4.735C28.9688 4.74536 28.9912 4.75572 29.0154 4.76607C29.039 4.77789 29.0618 4.7889 29.0841 4.79965C29.127 4.82028 29.1678 4.83997 29.2086 4.86266C29.2498 4.88326 29.2842 4.90388 29.3185 4.92447L29.3191 4.92481C29.3881 4.96622 29.4571 5.00766 29.5262 5.05598C29.5607 5.07669 29.5883 5.09735 29.6159 5.11806L29.8022 5.26304C29.816 5.27685 29.8316 5.29064 29.8471 5.30443C29.8626 5.31822 29.8782 5.33201 29.892 5.34582C29.9541 5.40103 30.0162 5.45625 30.0714 5.51837C30.0851 5.52523 30.092 5.53214 30.0989 5.539L30.099 5.53913C30.7685 4.83511 31.6934 4.43478 32.6666 4.43478C34.5716 4.43478 36.1384 5.94636 36.2143 7.85136C36.7596 7.3337 37.4774 7.04379 38.2298 7.04379C39.8449 7.04379 41.1563 8.35516 41.1563 9.97027C41.1494 10.4948 41.0045 11.0125 40.7353 11.4681C41.2667 10.9918 41.957 10.7295 42.6679 10.7295C44.283 10.7295 45.5944 12.041 45.5944 13.6561C45.5944 14.4222 45.2907 15.1538 44.7592 15.6991C44.9525 15.6508 45.1527 15.6232 45.3528 15.6232C46.6988 15.6232 47.7893 16.7137 47.7893 18.0596C47.7893 18.9983 47.244 19.8542 46.3951 20.2545C46.3951 20.258 46.3968 20.2614 46.3985 20.2649C46.4002 20.2684 46.402 20.2718 46.402 20.2753C47.5339 20.3029 48.4381 21.2347 48.4381 22.3666C48.4381 23.2915 47.8307 24.1128 46.9472 24.3751V24.4648V24.4925C47.81 24.6443 48.4381 25.3966 48.4381 26.2732C48.4381 27.1015 47.8721 27.8193 47.0715 28.0195C47.4718 28.3646 47.6996 28.8616 47.6996 29.3861C47.6996 30.3179 46.9817 31.0979 46.0499 31.1807C46.326 31.5051 46.471 31.9123 46.471 32.3333C46.471 33.272 45.7532 34.052 44.8145 34.1279C44.8835 34.3142 44.918 34.5213 44.918 34.7215C44.918 35.7154 44.1104 36.5229 43.1165 36.5229C42.9026 36.5229 42.6886 36.4885 42.4884 36.4125C42.5229 36.5506 42.5436 36.7024 42.5436 36.8474C42.5436 37.8413 41.7361 38.6488 40.7422 38.6488C40.335 38.6488 39.9415 38.5108 39.624 38.2623C38.9712 38.7068 38.2907 39.1024 37.588 39.4477C38.7221 37.8956 39.3914 35.9825 39.3914 33.913V24.5217C39.3914 19.3351 35.1868 15.1304 30.0001 15.1304C24.8135 15.1304 20.6088 19.3351 20.6088 24.5217V33.913C20.6088 35.8117 21.1722 37.5787 22.141 39.0561C21.6417 38.7784 21.1555 38.4744 20.6845 38.145C20.3463 38.4694 19.8976 38.6488 19.4352 38.6488C18.4413 38.6488 17.6337 37.8413 17.6337 36.8474C17.6337 36.7024 17.6544 36.5575 17.6889 36.4125C17.4887 36.4816 17.2748 36.5229 17.0608 36.5229C16.0669 36.5229 15.2594 35.7154 15.2594 34.7215C15.2594 34.5213 15.2939 34.3211 15.3629 34.1279C14.4311 34.052 13.7064 33.272 13.7064 32.3333C13.7064 31.9123 13.8582 31.5051 14.1274 31.1807C13.1956 31.1048 12.4778 30.3179 12.4778 29.3861C12.4778 28.8616 12.7055 28.3646 13.1059 28.0195C12.3052 27.8262 11.7393 27.1015 11.7393 26.2732C11.7393 25.2793 12.5468 24.4718 13.5407 24.4718V24.4511C12.5123 24.3061 11.7393 23.4227 11.7393 22.3804C11.7393 21.2209 12.671 20.2891 13.8237 20.2821C12.9471 19.8887 12.3811 19.019 12.3811 18.0596C12.3811 16.7137 13.4717 15.6232 14.8176 15.6232C15.0178 15.6232 15.2179 15.6508 15.4112 15.6991C14.8728 15.1538 14.5761 14.4222 14.5761 13.6561C14.5761 12.041 15.8875 10.7295 17.5026 10.7295C18.2135 10.7364 18.9037 10.9987 19.4352 11.4681C19.1591 11.0194 19.0141 10.5017 19.0141 9.97027C19.0141 8.35516 20.3255 7.04379 21.9407 7.04379C22.6861 7.04379 23.4039 7.3337 23.9492 7.85136C24.0182 6.0844 25.3848 4.63493 27.1449 4.45548Z" fill="black"/>
<path d="M40.7537 13.8977L20.1369 14.0426C20.1369 14.0426 17.2173 22.056 17.2173 23.6504C17.2173 25.3208 18.5701 26.6736 20.2405 26.6736C21.6416 26.6736 22.8564 25.7073 23.1808 24.3407C23.5466 24.4925 23.94 24.5684 24.3334 24.5684C25.7967 24.5684 27.0322 23.5193 27.3014 22.1044C27.9709 22.698 28.813 23.0568 29.7102 23.1328C29.7102 23.1328 29.7102 23.1328 29.7171 23.1328C29.8207 23.1397 29.9242 23.1466 30.0346 23.1466H30.0416H30.0484C31.0493 23.1466 32.0087 22.7808 32.761 22.1251C33.0371 23.5331 34.2657 24.5684 35.722 24.5684C36.1155 24.5684 36.5089 24.4925 36.8747 24.3407C37.1922 25.7073 38.4139 26.6736 39.815 26.6736C41.4854 26.6736 42.8382 25.3208 42.8382 23.6504C42.8106 21.9801 40.7537 13.8977 40.7537 13.8977Z" fill="black"/>
<path d="M40.117 23.0223C39.4061 17.9838 34.616 14.8778 30.102 14.8778C25.5948 14.8778 20.8047 17.9769 20.0869 23.0223" stroke="#C837AB" stroke-width="5" stroke-linecap="round"/>
<path d="M19.5654 27.6522C19.5654 27.0759 20.0326 26.6087 20.6089 26.6087V32.087C20.0326 32.087 19.5654 31.6198 19.5654 31.0435V27.6522Z" fill="#4E342E"/>
<path d="M40.4346 27.6522C40.4346 27.0759 39.9674 26.6087 39.3911 26.6087V32.087C39.9674 32.087 40.4346 31.6198 40.4346 31.0435V27.6522Z" fill="#4E342E"/>
</g>
<defs>
<filter id="filter0_i_10_13258" x="-0.260742" y="-0.260864" width="60.522" height="70.5217" filterUnits="userSpaceOnUse" color-interpolation-filters="sRGB">
<feFlood flood-opacity="0" result="BackgroundImageFix"/>
<feBlend mode="normal" in="SourceGraphic" in2="BackgroundImageFix" result="shape"/>
<feColorMatrix in="SourceAlpha" type="matrix" values="0 0 0 0 0 0 0 0 0 0 0 0 0 0 0 0 0 0 127 0" result="hardAlpha"/>
<feOffset dy="10"/>
<feGaussianBlur stdDeviation="6"/>
<feComposite in2="hardAlpha" operator="arithmetic" k2="-1" k3="1"/>
<feColorMatrix type="matrix" values="0 0 0 0 0.380392 0 0 0 0 0.74902 0 0 0 0 0.92549 0 0 0 0.95 0"/>
<feBlend mode="normal" in2="shape" result="effect1_innerShadow_10_13258"/>
</filter>
<linearGradient id="paint0_linear_10_13258" x1="29.9984" y1="43.3069" x2="29.9984" y2="47.7224" gradientUnits="userSpaceOnUse">
<stop stop-color="#AA0044"/>
<stop offset="1" stop-color="#550022"/>
</linearGradient>
<linearGradient id="paint1_linear_10_13258" x1="30.0018" y1="39.1304" x2="30.0018" y2="49.42" gradientUnits="userSpaceOnUse">
<stop stop-color="#4E342E"/>
<stop offset="1" stop-color="#80564C"/>
</linearGradient>
<linearGradient id="paint2_linear_10_13258" x1="29.9982" y1="33.9462" x2="30.0002" y2="24.6522" gradientUnits="userSpaceOnUse">
<stop stop-color="#6D4C41"/>
<stop offset="1" stop-color="#3E2723"/>
</linearGradient>
<linearGradient id="paint3_linear_10_13258" x1="30.2611" y1="33.913" x2="30.2611" y2="36.5217" gradientUnits="userSpaceOnUse">
<stop stop-color="#33221E"/>
<stop offset="1" stop-color="#50352F"/>
</linearGradient>
<clipPath id="clip0_10_13258">
<rect width="60" height="60" rx="30" fill="white"/>
</clipPath>
</defs>
</svg>
