<svg width="60" height="60" viewBox="0 0 60 60" fill="none" xmlns="http://www.w3.org/2000/svg">
<g clip-path="url(#clip0_10_13410)">
<rect width="60" height="60" rx="30" fill="#F9FAFF"/>
<g filter="url(#filter0_i_10_13410)">
<circle cx="30.0001" cy="30" r="30.2609" fill="#18284F"/>
</g>
<path d="M12.522 60C12.522 50.7793 19.9969 43.3044 29.2176 43.3044H30.7829C40.0036 43.3044 47.4785 50.7793 47.4785 60H12.522Z" fill="url(#paint0_linear_10_13410)"/>
<path d="M38.087 43.3044C38.087 44.3664 37.8778 45.418 37.4714 46.3991C37.065 47.3803 36.4693 48.2718 35.7184 49.0227C34.9674 49.7736 34.0759 50.3693 33.0948 50.7757C32.1136 51.1821 31.062 51.3913 30 51.3913C28.938 51.3913 27.8865 51.1821 26.9053 50.7757C25.9241 50.3693 25.0326 49.7736 24.2817 49.0227C23.5308 48.2718 22.9351 47.3803 22.5287 46.3991C22.1223 45.418 21.9131 44.3664 21.9131 43.3044L30 43.3044H38.087Z" fill="#4A2999"/>
<rect x="24" y="28.4348" width="12" height="20.8696" rx="6" fill="url(#paint1_linear_10_13410)"/>
<rect x="20.6089" y="15.1304" width="18.7826" height="28.1739" rx="9.3913" fill="url(#paint2_linear_10_13410)"/>
<path d="M35.4785 33.913C35.4785 34.6325 35.3368 35.3448 35.0615 36.0095C34.7862 36.6741 34.3827 37.2781 33.8739 37.7868C33.3652 38.2955 32.7613 38.699 32.0967 38.9743C31.432 39.2496 30.7196 39.3913 30.0002 39.3913C29.2808 39.3913 28.5684 39.2496 27.9038 38.9743C27.2391 38.699 26.6352 38.2955 26.1265 37.7868C25.6178 37.2781 25.2143 36.6741 24.939 36.0095C24.6637 35.3448 24.522 34.6325 24.522 33.913L30.0002 33.913H35.4785Z" fill="url(#paint3_linear_10_13410)"/>
<path fill-rule="evenodd" clip-rule="evenodd" d="M33.0677 38.4519C32.7631 38.6578 32.4378 38.833 32.0966 38.9743C31.4319 39.2496 30.7195 39.3913 30.0001 39.3913C29.2807 39.3913 28.5683 39.2496 27.9037 38.9743C27.5624 38.833 27.2372 38.6578 26.9326 38.452C27.5833 37.4474 28.7141 36.7826 30.0002 36.7826C31.2862 36.7826 32.417 37.4473 33.0677 38.4519Z" fill="#EF5350"/>
<path d="M26.0874 33.9131H33.9135C33.9135 34.7775 33.2127 35.4783 32.3483 35.4783H27.6526C26.7882 35.4783 26.0874 34.7775 26.0874 33.9131Z" fill="white"/>
<ellipse cx="34.5654" cy="29.3478" rx="1.95652" ry="1.95652" fill="black"/>
<ellipse cx="35.348" cy="28.8261" rx="0.652173" ry="0.652174" fill="white"/>
<ellipse cx="34.9567" cy="30" rx="0.260869" ry="0.26087" fill="white"/>
<circle cx="25.4345" cy="29.3478" r="1.95652" fill="black"/>
<ellipse cx="26.2171" cy="28.8261" rx="0.652174" ry="0.652174" fill="white"/>
<ellipse cx="25.8258" cy="30" rx="0.26087" ry="0.26087" fill="white"/>
<path fill-rule="evenodd" clip-rule="evenodd" d="M28.5459 10.1739H28.5465C29.2651 10.1808 30.072 10.5608 30.0721 11.2334C30.0867 10.5197 31.0097 10.1329 31.756 10.1808C33.9716 10.3326 36.5392 11.6786 38.2717 13.4387C41.9781 17.2142 42.1576 20.4029 42.1576 25.3725V30.3697V42.1517C42.1576 46.6382 39.0792 49.5301 35.9457 50.8277V42.0896L35.5094 41.5195C37.8617 39.8128 39.3915 37.0416 39.3915 33.913V24.5217C39.3915 19.3351 35.1869 15.1304 30.0002 15.1304C24.8135 15.1304 20.6089 19.3351 20.6089 24.5217V33.913C20.6089 37.0864 22.1828 39.8921 24.5926 41.5922L24.212 42.0896V50.8277C21.0784 49.5301 18 46.6382 18 42.1517V30.3697V25.3725C18 20.396 18.1794 17.2073 21.8859 13.4387C23.6184 11.6786 26.186 10.3326 28.4016 10.1808C28.4497 10.1739 28.4978 10.1739 28.5459 10.1739Z" fill="black"/>
<path d="M19.5654 27.6522C19.5654 27.0759 20.0326 26.6087 20.6089 26.6087V32.087C20.0326 32.087 19.5654 31.6198 19.5654 31.0435V27.6522Z" fill="#FFAB91"/>
<path d="M40.4346 27.6522C40.4346 27.0759 39.9674 26.6087 39.3911 26.6087V32.087C39.9674 32.087 40.4346 31.6198 40.4346 31.0435V27.6522Z" fill="#FFAB91"/>
<path d="M30.0859 13.204L19.5654 17.8696L20.8025 32.5093L21.5686 28.5337L22.9836 24.1577L25.0887 23.5986L25.4684 20.7205L25.8342 23.502L28.3051 23.1776L28.8642 18.9534L29.4233 23.1776H30.0859H31.8598L34.5102 23.5296L34.8829 22.1284L35.0762 23.5986L37.1814 24.1577L38.5963 28.5337L39.3624 32.5093L40.0872 15.8819L30.0859 13.204Z" fill="black"/>
<path d="M38.8862 22.2113C38.2581 17.8215 34.0477 15.1227 30.0859 15.1227C26.1241 15.1227 21.9068 17.8215 21.2856 22.2113" stroke="#C51162" stroke-width="4" stroke-linecap="round"/>
</g>
<defs>
<filter id="filter0_i_10_13410" x="-0.260742" y="-0.260864" width="60.522" height="70.5217" filterUnits="userSpaceOnUse" color-interpolation-filters="sRGB">
<feFlood flood-opacity="0" result="BackgroundImageFix"/>
<feBlend mode="normal" in="SourceGraphic" in2="BackgroundImageFix" result="shape"/>
<feColorMatrix in="SourceAlpha" type="matrix" values="0 0 0 0 0 0 0 0 0 0 0 0 0 0 0 0 0 0 127 0" result="hardAlpha"/>
<feOffset dy="10"/>
<feGaussianBlur stdDeviation="6"/>
<feComposite in2="hardAlpha" operator="arithmetic" k2="-1" k3="1"/>
<feColorMatrix type="matrix" values="0 0 0 0 0.380392 0 0 0 0 0.74902 0 0 0 0 0.92549 0 0 0 0.95 0"/>
<feBlend mode="normal" in2="shape" result="effect1_innerShadow_10_13410"/>
</filter>
<linearGradient id="paint0_linear_10_13410" x1="29.9984" y1="43.3053" x2="29.9984" y2="47.7205" gradientUnits="userSpaceOnUse">
<stop stop-color="#7E57C2"/>
<stop offset="1" stop-color="#512DA8"/>
</linearGradient>
<linearGradient id="paint1_linear_10_13410" x1="30.0018" y1="28.435" x2="30.0018" y2="49.42" gradientUnits="userSpaceOnUse">
<stop stop-color="#E64A19"/>
<stop offset="1" stop-color="#FFCCBC"/>
</linearGradient>
<linearGradient id="paint2_linear_10_13410" x1="29.9982" y1="33.9455" x2="29.9982" y2="29.6352" gradientUnits="userSpaceOnUse">
<stop stop-color="#FFCCBC"/>
<stop offset="1" stop-color="#FF8A65"/>
</linearGradient>
<linearGradient id="paint3_linear_10_13410" x1="30.2611" y1="33.913" x2="30.2611" y2="35.3478" gradientUnits="userSpaceOnUse">
<stop stop-color="#FF7043"/>
<stop offset="1" stop-color="#FFAB91"/>
</linearGradient>
<clipPath id="clip0_10_13410">
<rect width="60" height="60" rx="30" fill="white"/>
</clipPath>
</defs>
</svg>
