<svg width="60" height="60" viewBox="0 0 60 60" fill="none" xmlns="http://www.w3.org/2000/svg">
<g clip-path="url(#clip0_10_13338)">
<rect width="60" height="60" rx="30" fill="#F9FAFF"/>
<g filter="url(#filter0_i_10_13338)">
<circle cx="30.0001" cy="30" r="30.2609" fill="#18284F"/>
</g>
<path d="M12.522 60C12.522 50.7793 19.9969 43.3044 29.2176 43.3044H30.7829C40.0036 43.3044 47.4785 50.7793 47.4785 60H12.522Z" fill="url(#paint0_linear_10_13338)"/>
<path d="M38.087 43.3044C38.087 44.3664 37.8778 45.418 37.4714 46.3991C37.065 47.3803 36.4693 48.2718 35.7184 49.0227C34.9674 49.7736 34.0759 50.3693 33.0948 50.7757C32.1136 51.1821 31.062 51.3913 30 51.3913C28.938 51.3913 27.8865 51.1821 26.9053 50.7757C25.9241 50.3693 25.0326 49.7736 24.2817 49.0227C23.5308 48.2718 22.9351 47.3803 22.5287 46.3991C22.1223 45.418 21.9131 44.3664 21.9131 43.3044L30 43.3044H38.087Z" fill="#004739"/>
<rect x="24" y="28.4348" width="12" height="20.8696" rx="6" fill="url(#paint1_linear_10_13338)"/>
<rect x="20.6089" y="15.1304" width="18.7826" height="28.1739" rx="9.3913" fill="url(#paint2_linear_10_13338)"/>
<path d="M35.4785 33.913C35.4785 34.6325 35.3368 35.3448 35.0615 36.0095C34.7862 36.6741 34.3827 37.2781 33.8739 37.7868C33.3652 38.2955 32.7613 38.699 32.0967 38.9743C31.432 39.2496 30.7196 39.3913 30.0002 39.3913C29.2808 39.3913 28.5684 39.2496 27.9038 38.9743C27.2391 38.699 26.6352 38.2955 26.1265 37.7868C25.6178 37.2781 25.2143 36.6741 24.939 36.0095C24.6637 35.3448 24.522 34.6325 24.522 33.913L30.0002 33.913H35.4785Z" fill="url(#paint3_linear_10_13338)"/>
<path fill-rule="evenodd" clip-rule="evenodd" d="M33.0677 38.4519C32.7631 38.6578 32.4378 38.833 32.0966 38.9743C31.4319 39.2496 30.7195 39.3913 30.0001 39.3913C29.2807 39.3913 28.5683 39.2496 27.9037 38.9743C27.5624 38.833 27.2372 38.6578 26.9326 38.452C27.5833 37.4474 28.7141 36.7826 30.0002 36.7826C31.2862 36.7826 32.417 37.4473 33.0677 38.4519Z" fill="#EF5350"/>
<path d="M26.0874 33.9131H33.9135C33.9135 34.7775 33.2127 35.4783 32.3483 35.4783H27.6526C26.7882 35.4783 26.0874 34.7775 26.0874 33.9131Z" fill="white"/>
<ellipse cx="34.5654" cy="29.3478" rx="1.95652" ry="1.95652" fill="black"/>
<ellipse cx="35.348" cy="28.8261" rx="0.652173" ry="0.652174" fill="white"/>
<ellipse cx="34.9567" cy="30" rx="0.260869" ry="0.26087" fill="white"/>
<circle cx="25.4345" cy="29.3478" r="1.95652" fill="black"/>
<ellipse cx="26.2171" cy="28.8261" rx="0.652174" ry="0.652174" fill="white"/>
<ellipse cx="25.8258" cy="30" rx="0.26087" ry="0.26087" fill="white"/>
<path d="M28.2129 9.70711C26.8187 9.70711 25.6729 10.8115 25.6177 12.2057C25.2174 11.8261 24.6928 11.619 24.1475 11.6121C22.9673 11.6121 22.0079 12.5715 22.0079 13.7518C22.0079 14.1383 22.1114 14.5179 22.3116 14.8492C21.9181 14.5041 21.4212 14.3109 20.8966 14.3109C19.7164 14.3109 18.7569 15.2703 18.7569 16.4505C18.7569 16.9337 18.9226 17.403 19.2194 17.7757C18.6948 18.1968 18.3911 18.8318 18.3911 19.5082C18.3911 20.7368 19.1798 21.7307 20.4083 21.7307C20.4083 22.0482 20.4774 22.3588 20.6085 22.6487V33.913C21.0364 33.9061 21.3911 33.5584 21.3911 33.1304V26.3478C21.3911 25.4782 22.277 24.7884 23.1467 24.7884V23.9532C24.0647 23.8289 24.817 23.1526 25.0241 22.2484C25.2933 22.3588 25.5832 22.4209 25.88 22.4209C26.936 22.4209 27.8402 21.6824 28.0611 20.6678C28.5097 21.3511 29.2759 21.7652 30.0903 21.7652C30.9117 21.7652 31.6709 21.3511 32.1196 20.6609C32.3404 21.6755 33.2446 22.414 34.3006 22.414C34.5905 22.414 34.8804 22.3588 35.1565 22.2415C35.3705 23.1456 36.1159 23.8221 37.0339 23.9463V24.7815C37.9036 24.7815 38.6007 25.4786 38.6007 26.3483V33.1262C38.6007 33.5541 38.9701 33.9061 39.3911 33.913V22.6492C39.5223 22.3593 39.567 22.0413 39.567 21.7238C40.7956 21.7238 41.7895 20.7299 41.7895 19.5013C41.7895 18.8249 41.4858 18.1899 40.9612 17.7689C41.258 17.3892 41.4237 16.9268 41.4237 16.4436C41.4237 15.2634 40.4643 14.304 39.284 14.304C38.7595 14.304 38.2625 14.4972 37.8691 14.8423C38.0692 14.511 38.1728 14.1314 38.1728 13.7449C38.1728 12.5646 37.2134 11.6052 36.0331 11.6052C35.4878 11.6052 34.9564 11.8192 34.5629 12.1988C34.5077 10.8046 33.3619 9.7002 31.9677 9.7002C31.2568 9.7002 30.5804 9.9901 30.0903 10.5078C29.6003 10.0039 28.9239 9.70711 28.2129 9.70711Z" fill="black"/>
<path d="M19.5654 27.6522C19.5654 27.0759 20.0326 26.6087 20.6089 26.6087V32.087C20.0326 32.087 19.5654 31.6198 19.5654 31.0435V27.6522Z" fill="#4E342E"/>
<path d="M40.4346 27.6522C40.4346 27.0759 39.9674 26.6087 39.3911 26.6087V32.087C39.9674 32.087 40.4346 31.6198 40.4346 31.0435V27.6522Z" fill="#4E342E"/>
</g>
<defs>
<filter id="filter0_i_10_13338" x="-0.260742" y="-0.260864" width="60.522" height="70.5217" filterUnits="userSpaceOnUse" color-interpolation-filters="sRGB">
<feFlood flood-opacity="0" result="BackgroundImageFix"/>
<feBlend mode="normal" in="SourceGraphic" in2="BackgroundImageFix" result="shape"/>
<feColorMatrix in="SourceAlpha" type="matrix" values="0 0 0 0 0 0 0 0 0 0 0 0 0 0 0 0 0 0 127 0" result="hardAlpha"/>
<feOffset dy="10"/>
<feGaussianBlur stdDeviation="6"/>
<feComposite in2="hardAlpha" operator="arithmetic" k2="-1" k3="1"/>
<feColorMatrix type="matrix" values="0 0 0 0 0.380392 0 0 0 0 0.74902 0 0 0 0 0.92549 0 0 0 0.95 0"/>
<feBlend mode="normal" in2="shape" result="effect1_innerShadow_10_13338"/>
</filter>
<linearGradient id="paint0_linear_10_13338" x1="29.9984" y1="43.3007" x2="29.9984" y2="47.7159" gradientUnits="userSpaceOnUse">
<stop stop-color="#00AA88"/>
<stop offset="1" stop-color="#005544"/>
</linearGradient>
<linearGradient id="paint1_linear_10_13338" x1="30.0018" y1="39.1304" x2="30.0018" y2="49.42" gradientUnits="userSpaceOnUse">
<stop stop-color="#4E342E"/>
<stop offset="1" stop-color="#80564C"/>
</linearGradient>
<linearGradient id="paint2_linear_10_13338" x1="29.9982" y1="33.9462" x2="30.0002" y2="24.6522" gradientUnits="userSpaceOnUse">
<stop stop-color="#6D4C41"/>
<stop offset="1" stop-color="#3E2723"/>
</linearGradient>
<linearGradient id="paint3_linear_10_13338" x1="30.2611" y1="33.913" x2="30.2611" y2="36.5217" gradientUnits="userSpaceOnUse">
<stop stop-color="#33221E"/>
<stop offset="1" stop-color="#50352F"/>
</linearGradient>
<clipPath id="clip0_10_13338">
<rect width="60" height="60" rx="30" fill="white"/>
</clipPath>
</defs>
</svg>
